<svg xmlns="http://www.w3.org/2000/svg" width="952.5" height="952.5"><path d="M162.45 822.5c40.7 40.699 88.2 72.699 141 95.1 54.8 23.201 112.899 34.9 172.8 34.9s118-11.699 172.8-34.9c52.9-22.4 100.3-54.299 141-95.1 40.7-40.699 72.7-88.199 95.101-141 23.199-54.801 34.899-112.9 34.899-172.801 0-59.899-11.7-118-34.899-172.799-22.4-52.9-54.301-100.3-95.101-141-40.7-40.7-88.2-72.7-141-95.1-7.5-3.2-15.1-6.1-22.8-8.9v153.5c23.4 13.3 45.2 29.9 64.8 49.5 57.4 57.4 89 133.7 89 214.799 0 81.102-31.6 157.4-89 214.801-57.399 57.4-133.7 89-214.8 89s-157.4-31.6-214.8-89c-57.4-57.4-89-133.699-89-214.801 0-81.099 31.6-157.399 89-214.799 19.6-19.6 41.399-36.2 64.8-49.5V90.9c-7.6 2.8-15.2 5.7-22.8 8.9-52.9 22.4-100.3 54.3-141 95.1-40.7 40.7-72.7 88.2-95.1 141-23.2 54.8-34.9 112.9-34.9 172.799 0 59.9 11.7 118 34.9 172.801 22.4 52.801 54.4 100.301 95.1 141z" fill="#fff"/><path d="M476.25 511.801c38.7 0 70-31.301 70-70V70c0-38.7-31.3-70-70-70s-70 31.3-70 70v371.9c0 38.6 31.3 69.901 70 69.901z" fill="#fff"/></svg>