<svg xmlns="http://www.w3.org/2000/svg" viewBox="0 0 473.741 473.741"><path d="M393.927 415.639c133.658 2.731 67.223-183.462 30.401-231.217S487.966 35.441 320.721 58.681 140.966 187.429 166.002 301.563C185.583 390.823 0 418.476 0 418.476s260.269-5.56 393.927-2.837zm-15.526-298.944c15.144 2.658 25.264 17.094 22.606 32.238l-54.835-9.632c2.658-15.144 17.086-25.264 32.229-22.606zm-86.723.121c15.005-3.341 29.881 6.113 33.23 21.118l-54.348 12.103c-3.341-14.996 6.112-29.872 21.118-33.221zm2.552 69.443s7.69-1.016 18.704-2.13v29.222h29.807v-31.62c4.105-.219 8.21-.39 12.193-.48v42.935h25.735V182.47c4.52.797 7.795 2.016 9.218 3.788 75.449 94.096 50.105 145.436 1.626 163.132v-30.368h-28.182v36.701c-6.779.723-13.68.984-20.59.732v-37.432h-40.375v30.157c-2.772-.943-5.495-1.951-8.129-3.064-76.96-32.515-.007-159.857-.007-159.857z" fill="#fff"/></svg>