<svg xmlns="http://www.w3.org/2000/svg" width="487.4" height="487.401"><path d="M438.711 179.056c-3.809 3.554-7.485 7.221-11.116 10.933-6.21-33.555-19.778-65.638-44.463-94.257-66.725-77.368-187.115-108.46-274.952-49.48C30.157 98.631-12.736 197.753 3.355 288.938c17.893 101.412 101.05 195.243 216.919 181.609 63.107-7.419 119.863-38.558 159.552-83.67.812-.722 1.534-1.514 2.25-2.326.873-.995 1.681-2.026 2.392-3.148 1.584-2.509 2.809-5.261 3.393-8.292l.492-2.529c2.661-13.816-7.227-27.68-21.734-30.478-8.516-1.646-16.904.924-22.973 6.058a25.348 25.348 0 0 0-5.91 7.257c-.335.624-.752 1.198-1.036 1.854-.122-.066-.264-.132-.386-.203-39.248 44.95-98.559 74.412-160.152 63.013-101.811-18.861-138.21-136.01-113.928-220.706 20.96-73.118 90.696-146.916 178.047-128.534 52.138 10.974 105.568 47.616 125.134 96.467a171.173 171.173 0 0 1 5.302 15.366 244.883 244.883 0 0 0-22.444-16.656c-12.264-8.043-27.676-9.374-38.167 2.072-8.744 9.537-9.414 28.467 2.859 36.516 16.433 10.781 30.742 23.075 43.193 37.024a205.583 205.583 0 0 1 20.515 27.248c1.346 2.138 2.722 4.25 4.007 6.454 6.23 10.684 16.062 13.649 25.232 11.725 7.378-.056 14.573-2.69 18.89-8.541 2.956-3.996 6.003-7.911 9.039-11.836 3.301-4.266 6.688-8.455 10.105-12.614 11.126-13.507 22.866-26.502 35.795-38.557 24.806-23.157-16.469-57.367-41.03-34.455z" fill="#fff"/></svg>