<svg xmlns="http://www.w3.org/2000/svg" viewBox="0 0 98.952 98.952"><path d="M78.858 54.44c-.604-2.011-1.787-2.703-2.079-2.849.024-.088.044-.188.06-.319.022-.19.052-.392.081-.591.098-.448.211-1.039.31-1.698l.012-.055-.005.011c.236-1.62.367-3.649-.131-5.07-.935-2.664-3.688-2.854-3.805-2.86.117-.625.129-1.075.105-1.354.056-1.04.076-2.593-.116-4.368-.182-1.663-2.414-2.945-4.77-3.814-4.195-1.054-7.629 1.907-7.629 1.907s4.086-5.976 5.771-8.997l.091-.079-.05.068 5.905-5.149 8.208-7.123L66.614 0l-.954 6.676c-.041.016-14.08-.304-24.617 2.192-12.524 2.967-22.963 6.946-22.907 7.232.036.186 12.081-2.566 26.459-2.323 6.583.111 12.729 1.244 16.79 2.196l-.071.081s.169.155.389-.006l.022.005a68.87 68.87 0 0 0-2.26 3c-2.217 3.145-10.294 13.529-12.083 15.241-2.513 2.407-3.028 4.028-5.183 8.042-1.781 3.316-3.701 5.793-4.877 7.346-.632.833-1.164 1.88-1.164 1.88s-.564-.783-1.018-1.016c-.527-.271-1.907 0-1.907 0 .154-.752.755-.322 1.232-1.938.461-1.567-.384-2.172-.278-2.83-.012.123 1.613-.355 2.815-2.352.927-1.54 2.154-2.973 2.404-4.406.231-1.333.227-2.641.101-3.287-.439-2.247-1.447-3.142-2.699-3.085-2.193.1-4.116 3.89-4.42 3.991-.303.101-1.081.771-1.081.771s-2.326.369-5.026 2.482c-.846.662-1.626 4.231-2.504 7.47-1.055 3.89-2.961 7.422-2.602 9.935.227 1.586 2.087 9.106 4.481 14.493 2.799 6.3 6.148 10.576 7.083 12.358 1.734 3.305 2.141 7.563 3.355 10.268 3.614 8.047 31.991 3.199 32.426 1.907.436-1.295.983-1.207.503-1.878-.35-.486.138-1.029.384-2.682.098-.631-.255-1.892-.095-2.685.435-2.157 6.803-14.296 9.638-20.884.938-2.184.881-3.895.901-4.247.077-1.42.039-.155-.238-2.17-.14-1.004-.064-5.034-.755-7.337zM70.974 6.978a5.246 5.246 0 0 1 5.052 5.432 5.207 5.207 0 0 1-1.495 3.456c-.196.159-.661.532-1.154.898a5.187 5.187 0 0 1-1.497.569c1.023-1.367 1.629-2.01 2.242-3.671.445-1.225.573-2.01.197-2.729-1.348-2.577-3.21-3.496-6.355-1.646-.47.277-1.324 1.098-2.345 2.197.009-.062.015-.126.025-.188.041-.154.093-.366.143-.601.676-2.22 2.758-3.806 5.187-3.717zm-5.216 3.794l-.087.413-.016.018a7.32 7.32 0 0 1 .103-.431z" fill="#fff"/></svg>